# xmcd
#
# Track frame offsets:
#	150
#	17298
#	37247
#	56476
#	72222
#	91888
#	105791
#	126018
#	146463
#	165369
#
# Disc length: 2498 seconds
#
# Revision: 3
# Processed by: cddbd v1.5.2PL0 Copyright (c) Steve Scherf et al.
# Submitted via: EZCDAudioConverter 7.1.5.1
#
DISCID=7209c00a
DTITLE=周杰伦 - 依然范特西
DYEAR=2006
DGENRE=
TTITLE0=夜的第七章
TTITLE1=听妈妈的话
TTITLE2=千里之外
TTITLE3=本草纲目
TTITLE4=退后
TTITLE5=红模仿
TTITLE6=心雨
TTITLE7=白色风车
TTITLE8=迷迭香
TTITLE9=菊花台
EXTD=
EXTT0=
EXTT1=
EXTT2=
EXTT3=
EXTT4=
EXTT5=
EXTT6=
EXTT7=
EXTT8=
EXTT9=
PLAYORDER=
